<?xml version="1.0" standalone="no"?>
<!DOCTYPE svg PUBLIC "-//W3C//DTD SVG 20010904//EN"
 "http://www.w3.org/TR/2001/REC-SVG-20010904/DTD/svg10.dtd">
<svg version="1.0" xmlns="http://www.w3.org/2000/svg"
 width="2419.000000pt" height="2418.000000pt" viewBox="0 0 2419.000000 2418.000000"
 preserveAspectRatio="xMidYMid meet">

<g transform="translate(0.000000,2418.000000) scale(0.100000,-0.100000)"
fill="#000000" stroke="none">
<path d="M12924 23843 c-61 -106 -168 -197 -334 -286 -161 -86 -287 -112 -640
-132 -158 -9 -293 -21 -335 -31 -122 -29 -306 -132 -375 -210 -53 -61 -107
-198 -186 -478 -61 -214 -96 -287 -170 -360 -84 -82 -154 -113 -284 -127 -135
-14 -224 -6 -429 36 -284 60 -339 83 -406 175 -44 60 -54 108 -55 260 0 108 4
143 31 250 17 69 32 155 33 192 1 63 -2 73 -62 191 -69 137 -117 198 -205 263
-64 47 -93 57 -319 108 l-156 36 -79 -29 c-64 -24 -73 -30 -53 -34 14 -3 89
-17 166 -31 224 -41 269 -58 331 -123 105 -109 161 -280 119 -357 -40 -73
-107 -90 -316 -80 -124 5 -153 4 -205 -12 l-60 -18 83 -8 c107 -9 298 -45 331
-63 36 -18 75 -62 100 -112 36 -72 30 -115 -56 -427 -31 -115 -35 -139 -31
-211 9 -130 54 -208 226 -387 92 -96 150 -131 349 -212 314 -129 472 -176 664
-200 236 -29 395 -93 504 -201 79 -78 265 -328 304 -408 37 -75 57 -153 71
-272 23 -206 7 -299 -83 -469 -52 -99 -89 -137 -175 -180 -128 -65 -295 -96
-411 -77 -109 18 -122 42 -122 224 0 117 -3 138 -31 226 -37 117 -62 166 -124
251 -82 112 -162 187 -254 240 -101 58 -291 144 -364 165 -73 21 -290 53 -438
64 -182 14 -201 27 -227 166 -23 118 -21 117 -47 40 -23 -64 -24 -76 -14 -145
20 -138 12 -126 98 -154 42 -13 117 -30 166 -36 166 -21 320 -88 486 -210 132
-98 165 -148 176 -268 6 -61 4 -75 -16 -110 -26 -47 -90 -97 -180 -142 -212
-106 -302 -106 -532 0 -125 58 -245 90 -343 90 -186 0 -321 36 -379 100 -91
100 -166 339 -166 524 0 95 -23 180 -65 241 -19 28 -78 88 -132 135 -54 47
-180 156 -279 243 -118 102 -186 168 -195 189 -9 21 -14 72 -14 143 0 103 2
113 30 163 42 76 118 141 234 200 154 78 153 77 212 226 59 148 116 266 152
313 35 48 151 140 193 153 45 15 127 8 211 -18 50 -16 63 -17 67 -6 3 8 -31
32 -99 68 -113 61 -208 84 -292 71 -54 -8 -244 -91 -304 -132 -36 -25 -56 -52
-104 -144 -69 -129 -81 -139 -245 -200 -85 -32 -86 -32 -330 -39 -267 -6 -295
-12 -346 -67 -65 -70 -83 -159 -49 -253 9 -25 51 -110 95 -190 92 -170 105
-212 97 -322 -4 -68 -10 -88 -34 -122 -69 -97 -147 -118 -639 -171 -449 -47
-542 -52 -624 -30 -112 29 -133 47 -230 190 -81 120 -93 132 -144 158 -31 15
-59 27 -61 27 -3 0 13 -23 36 -52 84 -107 113 -210 73 -266 -20 -29 -87 -29
-203 -2 -161 39 -242 94 -403 274 -71 80 -52 26 48 -134 57 -91 112 -172 123
-181 10 -8 80 -50 156 -93 136 -78 136 -78 278 -103 127 -22 177 -25 472 -29
203 -3 341 -9 358 -16 36 -14 67 -54 67 -85 0 -14 -7 -40 -16 -59 -18 -38 -38
-46 -174 -65 -74 -10 -92 -16 -137 -51 -44 -32 -53 -44 -53 -69 0 -39 21 -34
32 8 12 45 46 54 263 62 204 8 242 17 291 73 24 27 44 90 44 140 0 58 26 72
140 76 117 4 297 -12 342 -31 56 -24 157 -107 217 -178 46 -55 74 -106 136
-242 185 -409 328 -676 402 -753 21 -22 117 -89 212 -149 190 -118 282 -187
318 -238 41 -58 57 -161 57 -377 1 -192 1 -196 -26 -253 -38 -82 -81 -132
-133 -157 -65 -32 -192 -52 -340 -53 -147 -2 -152 -1 -420 105 -82 32 -197 77
-255 100 -136 53 -238 106 -256 133 -8 12 -18 42 -23 68 -9 49 -44 99 -135
195 -62 66 -101 86 -386 200 -526 211 -776 360 -866 516 -40 70 -50 79 -237
222 l-138 106 -46 -9 -46 -8 69 -51 c82 -62 147 -131 230 -245 109 -150 254
-418 254 -470 0 -14 -9 -38 -21 -53 -19 -24 -26 -26 -104 -26 -45 0 -198 -7
-339 -15 l-256 -16 -96 -75 c-106 -82 -136 -98 -239 -121 -38 -9 -74 -20 -78
-23 -11 -10 150 -60 189 -60 48 0 93 19 176 76 83 57 120 67 238 68 52 0 76
-5 117 -27 160 -83 390 -97 683 -41 96 18 255 19 306 1 21 -7 112 -61 201
-119 137 -90 165 -112 178 -144 50 -119 21 -173 -111 -205 -86 -21 -134 -70
-149 -152 -14 -74 -109 -118 -307 -141 -251 -31 -589 -58 -631 -52 -39 6 -52
16 -116 87 -91 99 -133 123 -221 122 -86 0 -125 -19 -200 -92 -46 -46 -74 -64
-113 -76 -117 -35 -186 -16 -401 110 -178 104 -214 118 -273 104 -44 -9 -66
-33 -101 -109 -21 -44 -27 -77 -31 -160 -6 -96 -11 -117 -60 -246 -45 -120
-53 -148 -46 -180 6 -35 8 -36 18 -19 6 11 53 97 103 190 l92 170 77 3 c96 4
134 -12 323 -139 l137 -91 190 5 c104 2 206 10 225 16 63 21 245 25 393 7 163
-19 287 -13 707 35 697 78 705 79 965 79 138 0 279 5 315 9 36 5 119 17 185
27 155 22 230 13 350 -44 118 -57 293 -106 380 -106 88 -1 147 25 271 119 107
82 154 104 217 105 74 0 136 -38 262 -161 l111 -108 84 39 c111 52 156 53 264
5 l80 -34 65 19 c265 80 424 93 711 59 137 -16 253 -23 390 -23 l195 -1 95 47
c52 26 135 71 185 100 l89 53 91 0 c79 -1 99 -4 163 -33 93 -40 165 -54 503
-97 l275 -34 1045 -7 1044 -6 700 38 c769 41 1170 49 1292 25 64 -12 97 -12
290 5 210 18 289 19 803 13 137 -2 230 3 357 18 154 19 178 25 234 54 34 18
78 52 97 76 34 40 40 43 84 43 33 0 66 -9 100 -26 28 -14 94 -38 147 -52 l96
-27 375 1 c356 1 378 2 434 22 97 35 119 59 191 205 36 72 65 134 65 138 0 5
-64 -23 -142 -61 -234 -115 -236 -115 -493 -115 -170 0 -238 4 -300 18 -161
34 -171 39 -331 192 l-147 139 -106 0 -106 0 -305 -151 c-318 -158 -360 -174
-599 -224 -86 -18 -123 -21 -204 -15 -245 16 -617 77 -802 131 -31 9 -75 35
-115 67 l-65 53 580 5 579 5 416 445 415 445 1204 0 1204 0 241 424 242 425
79 1 c89 1 139 20 194 76 56 55 76 105 76 189 0 84 -20 134 -76 189 -55 56
-105 76 -189 76 -84 0 -134 -20 -189 -76 -56 -55 -76 -105 -76 -189 0 -73 12
-108 56 -171 10 -13 -31 -90 -213 -410 l-225 -394 -1190 4 -1190 3 -419 -450
-419 -451 -592 0 -592 -1 -15 22 c-9 12 -16 26 -16 30 0 5 254 8 564 8 l564 0
433 455 434 456 1130 -6 1130 -6 130 221 130 222 66 1 c78 2 133 33 176 99 24
35 28 52 28 108 0 56 -4 73 -28 108 -15 23 -46 54 -69 69 -35 24 -52 28 -108
28 -56 0 -73 -4 -108 -28 -108 -71 -133 -201 -58 -300 l33 -43 -120 -203 -121
-203 -1121 7 -1120 7 -435 -455 -435 -456 -576 -1 c-559 0 -576 1 -594 20 -32
36 -113 45 -370 43 -132 -1 -289 -6 -350 -11 -98 -8 -119 -13 -195 -49 -47
-22 -161 -89 -255 -147 -197 -124 -244 -141 -356 -133 -207 16 -282 97 -280
302 0 51 5 105 11 120 17 43 68 109 100 128 16 10 114 33 217 53 173 31 203
34 369 33 140 0 188 3 210 14 44 22 171 50 228 50 35 0 69 -8 106 -26 61 -29
106 -33 175 -15 36 10 56 25 102 78 32 36 158 173 280 306 l223 241 1336 6
c736 4 1555 7 1821 7 l483 0 100 134 99 134 38 -20 c84 -43 201 -6 260 84 24
35 28 52 28 108 0 56 -4 73 -28 108 -15 23 -46 54 -69 69 -35 24 -52 28 -108
28 -56 0 -73 -4 -108 -28 -86 -57 -124 -165 -88 -251 9 -21 13 -43 9 -50 -4
-6 -45 -62 -91 -123 l-84 -113 -498 0 c-273 0 -1066 -3 -1761 -6 l-1264 -7 29
32 30 31 1692 0 1693 0 94 116 95 116 7 121 8 122 83 91 84 91 47 -23 c109
-56 241 -6 294 111 63 137 -48 305 -201 305 -147 0 -261 -162 -206 -294 l14
-33 -98 -107 -98 -107 -7 -123 -7 -123 -72 -91 -71 -91 -1639 -1 -1640 0 35
36 34 36 366 -7 366 -7 211 315 212 316 0 233 0 234 326 416 326 416 36 -10
c112 -31 245 33 305 146 31 58 31 174 0 232 -28 53 -74 99 -127 127 -58 31
-174 31 -232 0 -53 -28 -99 -74 -127 -127 -33 -63 -31 -175 5 -239 l27 -48
-339 -432 -340 -432 0 -237 0 -237 -177 -266 -178 -266 -361 7 -361 6 -198
-213 c-109 -118 -280 -302 -379 -409 -314 -338 -309 -334 -340 -326 -15 4 -49
26 -74 51 l-47 43 -115 -15 c-188 -24 -434 1 -472 47 -9 12 -20 41 -24 65 -7
51 -1 65 92 213 33 53 82 134 108 179 26 46 69 106 94 134 l46 51 330 -7 331
-7 284 293 c157 162 317 327 357 368 l72 74 41 -17 c109 -43 231 8 282 119 49
106 -4 235 -116 286 -176 81 -365 -112 -285 -290 l20 -43 -92 -97 c-50 -53
-204 -212 -342 -354 l-251 -259 -306 7 -307 7 -22 -22 c-12 -12 -47 -33 -78
-47 -74 -32 -83 -41 -153 -145 -67 -98 -117 -149 -230 -230 -131 -93 -174
-111 -293 -116 -130 -5 -195 16 -255 84 -55 63 -75 127 -69 223 6 111 42 181
159 313 52 59 110 133 129 165 34 56 35 60 35 163 0 68 5 114 13 130 9 16 -2
9 -31 -21 -33 -33 -47 -57 -52 -87 -10 -58 -35 -75 -189 -123 -72 -22 -153
-47 -181 -56 -39 -13 -70 -36 -141 -104 -90 -87 -133 -111 -163 -92 -30 19
-51 59 -53 101 l-1 44 344 345 344 345 455 -6 c250 -3 667 -9 926 -12 l470 -6
195 205 194 205 263 1 c242 1 263 0 268 -16 28 -88 75 -147 147 -185 59 -32
175 -32 233 -1 53 28 99 74 127 127 31 58 31 174 0 232 -100 189 -356 205
-467 30 l-29 -46 -297 0 -298 0 -188 -197 c-103 -109 -191 -202 -194 -206 -4
-5 -425 -3 -935 3 l-929 11 -217 -217 c-120 -120 -220 -216 -222 -214 -2 3
-13 31 -24 62 l-20 57 201 192 201 191 845 -6 845 -7 319 301 319 300 137 0
c75 0 299 -3 498 -7 l360 -6 6 -32 c10 -50 59 -110 111 -135 92 -45 201 -6
253 90 48 91 10 205 -88 258 -88 47 -202 11 -252 -79 l-23 -41 -515 7 -515 6
-319 -301 -319 -300 -55 0 c-32 0 -52 4 -46 9 5 4 171 156 368 336 l360 327
416 -7 417 -7 23 37 c18 29 27 35 44 30 61 -19 121 -17 166 7 134 72 145 245
22 332 -161 113 -371 -73 -278 -247 25 -46 25 -49 9 -74 l-17 -25 -415 6 -416
7 -400 -366 -399 -367 -746 7 -745 6 -198 -191 c-108 -105 -201 -189 -206
-186 -5 3 -17 35 -26 71 -34 124 -3 241 83 315 l47 40 367 0 367 0 278 289
278 290 161 0 162 1 283 277 c156 152 363 355 460 450 l176 174 52 -17 c124
-40 259 18 324 140 31 58 31 174 0 232 -28 53 -74 99 -127 127 -32 17 -58 22
-116 22 -58 0 -84 -5 -116 -22 -53 -28 -99 -74 -127 -127 -28 -53 -31 -174 -5
-222 l17 -32 -438 -431 -439 -431 -160 0 -161 0 -278 -289 -278 -290 -277 0
-278 -1 37 55 38 56 215 -7 215 -7 300 307 300 306 40 -15 c136 -49 290 37
327 183 l10 42 88 0 88 0 261 273 261 272 0 136 0 136 43 17 c187 71 194 324
12 407 -173 80 -366 -112 -286 -286 22 -50 75 -101 118 -117 l33 -12 0 -126
-1 -125 -236 -245 -236 -245 -77 -3 -77 -3 -18 40 c-22 50 -67 96 -119 124
-57 30 -165 30 -221 0 -140 -74 -185 -241 -100 -368 l26 -37 -279 -286 -279
-287 -59 -3 c-33 -2 -160 2 -284 8 l-225 11 -45 -50 c-54 -60 -114 -101 -147
-101 -59 0 -132 67 -139 126 -9 76 42 139 507 627 151 158 297 320 326 360
153 212 244 495 198 617 l-13 35 -12 -30 c-6 -16 -25 -68 -42 -115 -37 -105
-58 -145 -119 -237 -116 -172 -184 -228 -323 -268 -109 -32 -251 -1 -298 65
-31 44 -50 141 -58 300 -4 85 -9 156 -9 157 -1 2 -23 28 -51 58 -27 30 -50 60
-50 67 0 30 -44 168 -51 161 -4 -4 -13 -37 -18 -73 -10 -58 -8 -72 16 -145 17
-53 26 -103 26 -150 1 -94 -40 -287 -124 -585 -54 -188 -73 -275 -84 -375 -23
-204 -33 -232 -140 -405 -127 -207 -145 -267 -145 -484 0 -88 -5 -177 -10
-197 -17 -62 -78 -120 -186 -176 -119 -61 -162 -71 -347 -79 -154 -7 -238 6
-325 47 -41 20 -72 60 -72 95 0 9 22 42 49 74 45 54 49 65 65 152 27 147 77
348 101 403 12 28 36 64 52 80 17 17 110 71 208 120 191 97 189 96 226 203 26
75 25 76 -22 4 -22 -34 -55 -70 -72 -78 -26 -14 -133 -54 -144 -54 -1 0 -3 65
-3 145 l0 144 138 104 c75 57 142 106 148 110 7 4 32 -2 55 -13 110 -49 238 1
290 115 63 137 -48 305 -201 305 -150 0 -261 -162 -204 -298 14 -35 14 -38 -4
-52 -10 -8 -83 -63 -160 -123 l-142 -107 0 -174 0 -173 -42 -7 c-98 -16 -143
-64 -293 -316 -100 -167 -186 -240 -286 -240 -44 0 -64 6 -102 29 -61 39 -126
107 -133 140 -12 57 -78 281 -106 358 -16 46 -33 120 -39 165 -17 128 6 516
37 643 29 120 94 219 167 256 60 31 214 46 326 32 105 -13 141 -30 171 -78
l22 -35 130 0 c116 0 135 2 165 21 19 12 32 23 30 26 -3 2 -31 0 -63 -6 -99
-19 -151 -15 -180 14 -32 32 -64 101 -64 142 0 26 12 42 75 101 58 54 92 77
153 102 149 61 186 81 283 150 137 98 183 165 195 287 6 53 4 60 -19 81 l-24
23 -29 -48z m3295 -100 c85 -63 75 -186 -20 -236 -92 -49 -208 33 -195 137 12
104 133 159 215 99z m390 -391 c58 -43 64 -140 12 -193 -76 -75 -204 -30 -217
77 -14 110 115 183 205 116z m-3470 -529 c85 -63 75 -186 -20 -236 -92 -49
-208 33 -195 137 12 104 133 159 215 99z m2122 -50 c48 -9 115 -80 124 -130
11 -67 -3 -112 -50 -159 -73 -72 -168 -72 -241 1 -72 73 -72 168 1 241 51 50
92 62 166 47z m3298 -201 c58 -43 64 -140 12 -193 -76 -75 -204 -30 -217 77
-14 110 115 183 205 116z m-1031 -82 c40 -25 72 -75 72 -115 0 -63 -72 -135
-135 -135 -63 0 -135 72 -135 135 0 63 72 135 135 135 17 0 45 -9 63 -20z
m250 -370 c40 -25 72 -75 72 -115 0 -63 -72 -135 -135 -135 -63 0 -135 72
-135 135 0 63 72 135 135 135 17 0 45 -9 63 -20z m-329 -378 c58 -43 64 -140
12 -193 -76 -75 -204 -30 -217 77 -14 110 115 183 205 116z m-670 -459 c85
-63 75 -186 -20 -236 -92 -49 -208 33 -195 137 12 104 133 159 215 99z m3605
-177 c93 -39 112 -165 35 -230 -61 -52 -141 -43 -194 21 -57 68 -35 164 46
205 41 22 69 22 113 4z m935 -274 c58 -43 64 -140 12 -193 -76 -75 -204 -30
-217 77 -14 110 115 183 205 116z m-520 -250 c38 -20 71 -73 71 -112 0 -62
-68 -130 -130 -130 -62 0 -130 68 -130 130 0 39 33 92 71 112 18 10 45 18 59
18 14 0 41 -8 59 -18z m-480 -10 c38 -20 71 -73 71 -112 0 -39 -33 -92 -71
-112 -18 -10 -45 -18 -59 -18 -14 0 -41 8 -59 18 -38 20 -71 73 -71 112 0 62
68 130 130 130 14 0 41 -8 59 -18z"/>
<path d="M13245 17516 c-243 -55 -410 -211 -487 -456 -22 -71 -23 -90 -23
-335 0 -241 2 -266 23 -340 50 -173 168 -318 323 -394 128 -63 181 -71 501
-71 162 0 299 5 330 11 133 27 219 72 317 164 78 74 131 159 169 270 26 79 27
82 27 360 0 276 -1 281 -27 358 -36 108 -96 204 -168 271 -76 70 -142 108
-245 143 -79 27 -84 27 -380 30 -223 2 -315 -1 -360 -11z m703 -310 c73 -34
124 -86 161 -165 l26 -56 0 -260 0 -260 -33 -67 c-53 -109 -139 -168 -271
-189 -92 -14 -508 -6 -566 10 -60 18 -146 81 -182 135 -54 79 -58 107 -58 376
l0 245 27 58 c46 98 94 145 186 183 56 24 62 24 352 21 l295 -2 63 -29z"/>
<path d="M5705 17500 c-302 -45 -535 -244 -624 -533 -32 -104 -41 -248 -41
-654 l0 -373 145 0 145 0 0 190 0 190 500 0 500 0 0 -190 0 -190 145 0 145 0
0 708 c0 479 -4 720 -11 747 -6 22 -21 51 -32 64 -45 50 -60 51 -454 50 -202
-1 -390 -5 -418 -9z m625 -585 l0 -305 -500 0 -500 0 0 89 c0 165 39 279 129
374 61 65 125 101 223 127 63 16 111 19 361 19 l287 1 0 -305z"/>
<path d="M7767 17500 c-38 -12 -55 -27 -78 -71 -18 -37 -19 -67 -19 -764 l0
-725 145 0 145 0 0 643 0 642 482 -3 c325 -2 486 -6 495 -14 20 -16 18 -277
-3 -326 -19 -47 -58 -88 -109 -115 -39 -21 -53 -22 -397 -25 l-358 -3 0 -144
0 -145 104 0 104 0 293 -255 294 -254 218 -1 c120 0 216 3 213 8 -2 4 -132
117 -289 252 l-284 245 41 8 c153 29 259 80 337 164 106 114 139 217 139 439
0 123 -4 164 -20 215 -29 92 -80 155 -164 198 l-69 36 -596 2 c-328 1 -609 -2
-624 -7z"/>
<path d="M10321 17492 c-19 -9 -44 -30 -55 -45 -21 -28 -21 -38 -24 -715 -2
-672 -2 -688 18 -720 11 -18 34 -41 52 -52 32 -20 47 -20 643 -18 l610 3 68
38 c123 69 173 172 171 352 -1 170 -55 299 -164 397 l-59 53 38 77 c48 98 65
189 59 311 -5 86 -8 101 -42 161 -44 79 -102 125 -194 155 -60 20 -84 21 -575
21 -468 0 -515 -2 -546 -18z m1059 -287 c9 -10 11 -42 8 -102 -5 -107 -31
-157 -105 -200 l-48 -28 -297 -3 -298 -3 0 -145 0 -144 348 0 c342 0 348 -1
397 -24 60 -27 110 -81 124 -133 15 -52 14 -166 -1 -181 -9 -9 -133 -12 -495
-12 l-483 0 0 495 0 495 419 0 c360 0 420 -2 431 -15z"/>
<path d="M15520 17492 c-19 -9 -45 -32 -57 -51 l-23 -34 0 -733 0 -734 140 0
140 0 0 643 0 642 487 -3 c333 -2 491 -6 500 -14 16 -13 18 -254 2 -312 -14
-51 -85 -120 -146 -140 -39 -13 -101 -16 -385 -16 l-338 0 0 -145 0 -145 103
0 102 -1 295 -254 295 -255 220 0 c175 1 217 3 204 13 -8 7 -140 120 -293 252
l-277 239 83 18 c174 37 309 133 375 268 47 96 56 147 56 330 1 135 -2 174
-17 215 -29 79 -76 143 -129 176 -94 58 -107 59 -732 59 -523 0 -573 -1 -605
-18z"/>
<path d="M17867 17488 c11 -13 154 -180 318 -373 164 -192 307 -359 317 -371
19 -21 17 -23 -312 -408 -181 -213 -330 -390 -330 -392 0 -2 85 -4 189 -4
l188 0 234 274 c129 151 237 275 240 275 3 1 112 -123 243 -274 l237 -275 190
0 c182 0 190 1 177 18 -7 10 -155 184 -328 386 -173 202 -314 373 -314 380 1
10 310 375 612 724 l54 62 -194 0 -194 0 -239 -279 c-170 -199 -243 -277 -251
-270 -6 5 -115 131 -240 279 l-229 269 -194 1 -194 0 20 -22z"/>
<path d="M15770 15419 c-50 -20 -398 -110 -515 -133 -92 -19 -169 -26 -330
-30 -268 -9 -428 -22 -537 -47 -124 -27 -356 -25 -734 6 -388 33 -809 87 -832
109 -16 13 -42 12 -267 -15 -330 -39 -485 -44 -784 -25 l-245 15 -91 -88
c-102 -99 -197 -154 -301 -173 l-62 -11 -108 51 c-208 98 -292 97 -410 -3 -64
-55 -73 -59 -204 -79 -153 -24 -182 -12 -293 122 -89 106 -94 108 -214 93 -53
-7 -106 -16 -118 -21 -13 -5 -49 -61 -100 -155 -56 -103 -89 -153 -109 -166
l-30 -18 -33 39 c-51 59 -89 68 -308 74 -150 4 -206 9 -265 25 -41 12 -105 28
-143 36 l-67 15 -181 -111 -180 -111 -132 22 c-257 42 -393 72 -529 116 -83
26 -173 48 -230 54 -51 6 -128 15 -170 20 -45 6 -115 24 -170 46 -180 70 -184
70 -453 -16 l-160 -51 -175 26 c-262 38 -432 55 -555 55 -163 0 -383 17 -440
34 -112 33 -219 46 -375 46 -86 0 -182 -4 -211 -10 -30 -5 -106 -36 -172 -69
l-118 -60 -71 25 c-69 23 -71 23 -97 5 -53 -38 -151 -81 -183 -81 -45 0 -94
32 -102 67 -15 62 -31 85 -108 144 -66 51 -79 58 -73 38 19 -58 26 -102 35
-224 5 -71 14 -146 21 -165 24 -71 94 -123 213 -159 115 -35 178 -25 291 49
67 43 152 83 211 99 21 5 127 17 236 26 l196 15 79 -32 78 -32 315 -7 c345 -7
334 -5 605 -89 55 -17 165 -39 244 -50 l143 -20 142 -74 c163 -87 193 -94 426
-102 l155 -6 235 55 c313 74 349 80 450 72 362 -28 642 -58 703 -76 62 -18 78
-19 180 -9 62 5 193 15 292 20 249 13 341 2 582 -70 143 -42 211 -74 261 -123
l43 -42 28 31 c16 18 39 63 51 100 13 38 31 87 41 110 l17 41 119 7 120 6 99
-36 c144 -52 355 -104 423 -104 68 0 124 18 293 94 177 79 238 94 329 78 134
-23 260 -100 328 -200 91 -135 151 -280 181 -443 11 -63 30 -147 41 -187 l19
-72 -71 -90 -70 -90 16 -136 c15 -133 15 -136 -5 -164 -14 -20 -20 -44 -20
-83 0 -44 -7 -70 -36 -124 -69 -133 -150 -182 -281 -170 -102 10 -112 18 -147
124 -17 50 -33 94 -36 96 -3 3 -59 -1 -125 -9 -247 -29 -520 -54 -589 -54
-152 0 -719 99 -826 145 -30 12 -121 50 -203 84 l-147 62 -167 -7 -167 -7 -80
-58 c-174 -123 -432 -255 -546 -278 -89 -18 -429 -31 -825 -31 l-371 0 -149
31 c-113 23 -186 32 -295 36 -160 5 -157 6 -520 -97 -104 -30 -172 -43 -241
-47 -89 -5 -100 -4 -153 20 -91 42 -218 130 -299 206 -78 74 -141 110 -193
111 l-32 0 -6 -92 c-3 -51 -8 -109 -12 -128 -5 -29 11 -76 92 -275 53 -132
100 -243 104 -248 3 -4 62 -16 131 -27 371 -61 503 -141 540 -328 17 -90 7
-181 -25 -236 -22 -38 -39 -52 -99 -80 -83 -40 -164 -54 -363 -63 l-132 -6 10
-31 c15 -44 21 -50 96 -94 64 -37 73 -39 195 -50 127 -11 128 -11 216 -61 49
-28 97 -51 107 -51 11 0 50 7 87 15 57 12 82 24 142 70 l73 56 254 -137 c414
-224 659 -363 723 -410 33 -25 87 -65 120 -90 33 -25 96 -63 140 -85 l80 -40
137 7 137 7 33 -35 c18 -19 40 -45 48 -58 l16 -23 59 18 c77 22 137 53 211
109 73 55 101 66 162 66 90 0 118 -14 148 -75 29 -61 28 -86 -8 -182 -23 -62
-87 -132 -171 -188 l-57 -38 -133 6 c-151 7 -486 41 -567 58 -32 6 -95 34
-150 65 -52 30 -108 56 -125 58 -16 3 -116 7 -222 10 -183 5 -192 5 -198 -14
-3 -10 -19 -30 -35 -43 -23 -20 -65 -32 -227 -62 -406 -77 -447 -88 -610 -159
-99 -44 -174 -71 -215 -76 -104 -16 -369 -12 -417 5 -23 8 -130 68 -239 134
-151 91 -240 137 -380 195 l-182 76 -75 -52 c-41 -29 -75 -55 -75 -58 0 -4 71
-41 158 -82 l158 -75 109 -154 c60 -85 132 -176 160 -204 64 -62 177 -130 323
-196 178 -79 200 -82 467 -76 l230 6 170 59 c265 93 327 106 466 99 64 -4 151
-12 194 -18 87 -13 123 -37 163 -107 l23 -41 -43 -29 c-80 -55 -233 -145 -303
-179 l-70 -33 189 6 188 7 117 84 c141 102 213 138 311 159 130 28 173 18 365
-80 91 -47 198 -95 237 -107 87 -27 137 -23 338 26 214 52 288 47 351 -22 37
-39 47 -61 64 -144 9 -40 23 -81 32 -91 29 -32 201 -68 257 -54 13 3 47 34 75
70 56 70 131 126 168 126 49 0 150 -63 236 -147 98 -96 138 -205 141 -383 1
-84 -2 -99 -21 -126 -40 -56 -81 -68 -213 -61 -63 4 -173 13 -244 22 l-129 15
-174 -56 c-202 -64 -330 -112 -339 -125 -10 -17 15 -36 72 -54 57 -18 78 -39
92 -91 14 -49 5 -63 -51 -78 -63 -18 -210 -36 -292 -36 -65 0 -292 34 -505 75
-242 47 -359 81 -510 148 -185 82 -360 151 -439 173 -71 20 -75 19 -230 -51
-56 -26 -122 -50 -145 -52 -29 -3 -115 14 -296 60 -254 64 -256 65 -460 75
-112 6 -206 10 -207 8 -1 -1 44 -23 100 -48 67 -30 141 -54 213 -68 194 -39
262 -78 284 -161 15 -55 7 -154 -18 -236 l-20 -63 83 0 c169 0 311 22 408 65
23 10 22 -11 -4 -111 -12 -48 -35 -102 -59 -139 -21 -33 -50 -85 -64 -115 -37
-81 -61 -260 -36 -260 6 0 49 10 96 21 70 18 95 30 136 65 96 82 121 89 298
87 182 -1 295 -20 353 -59 22 -14 83 -66 136 -114 l97 -87 69 15 c76 17 313
23 378 9 24 -5 59 -27 96 -60 113 -101 283 -190 441 -232 87 -22 93 -30 74
-91 -14 -48 -17 -52 -52 -58 -20 -3 -50 -6 -65 -6 -26 0 -28 -3 -25 -32 3 -29
14 -40 88 -90 130 -88 219 -119 365 -128 181 -11 258 -37 270 -90 5 -23 13
-30 38 -35 18 -3 156 -23 307 -46 151 -22 331 -51 400 -65 68 -14 135 -22 147
-19 13 3 23 2 23 -2 0 -10 -75 -191 -81 -198 -3 -2 -72 -18 -154 -36 -236 -49
-301 -76 -443 -181 l-54 -40 6 -46 c3 -26 12 -52 19 -59 26 -26 251 -134 268
-130 25 7 25 -17 -1 -43 -17 -17 -33 -20 -107 -20 -313 0 -505 -89 -850 -393
-109 -96 -176 -163 -309 -309 -33 -37 -74 -68 -120 -91 -115 -58 -118 -62
-110 -140 l8 -68 66 -31 c83 -39 127 -39 242 -3 163 52 249 104 410 250 163
147 488 335 614 355 113 18 424 30 537 21 92 -8 387 -71 418 -90 20 -13 -65
-239 -103 -270 -8 -7 -61 -17 -118 -23 l-103 -10 -93 36 -93 36 -54 -27 c-30
-15 -55 -30 -55 -33 0 -4 15 -14 34 -22 18 -9 49 -30 67 -46 19 -16 58 -37 86
-46 62 -21 104 -65 133 -144 37 -99 22 -177 -42 -225 -48 -35 -61 -38 -205
-46 -73 -4 -135 -10 -139 -13 -14 -14 -64 -266 -64 -323 l0 -60 77 -73 c87
-82 84 -82 98 21 l6 48 180 -7 180 -7 70 69 69 68 0 -111 0 -111 -82 -27 c-50
-17 -94 -38 -112 -55 l-28 -28 127 -7 c119 -7 374 -2 631 11 l111 6 37 -32
c48 -43 69 -85 63 -125 -3 -17 -24 -71 -47 -118 -34 -69 -44 -104 -51 -167 -7
-78 -11 -86 -105 -248 -53 -92 -104 -175 -113 -186 -20 -23 -224 -195 -306
-258 -33 -25 -78 -54 -100 -66 -53 -27 -81 -58 -100 -111 -20 -57 -19 -79 5
-143 48 -130 102 -150 211 -81 146 92 326 162 439 170 61 4 67 3 103 -27 32
-27 37 -37 37 -74 0 -50 -36 -111 -110 -190 -47 -50 -49 -54 -56 -129 l-7 -77
73 0 c72 0 75 1 236 85 l163 85 44 -62 c73 -102 158 -248 194 -330 44 -102 45
-158 2 -216 -17 -23 -34 -42 -38 -42 -3 0 -28 -20 -54 -43 -43 -40 -47 -48
-47 -88 1 -66 32 -124 115 -210 41 -43 77 -89 80 -102 4 -13 -1 -165 -10 -337
-16 -305 -15 -368 11 -527 5 -35 18 -40 83 -27 l31 6 -22 30 -21 30 66 66 65
67 76 241 76 241 -25 96 c-13 53 -32 147 -41 209 -32 219 -4 301 164 468 132
132 172 154 258 147 44 -3 77 -13 111 -32 116 -67 124 -70 213 -70 98 1 143
18 181 68 21 28 24 42 24 122 0 52 5 99 12 111 13 23 75 80 112 105 23 15 24
20 24 120 0 107 -11 146 -52 193 -36 41 -58 44 -381 55 l-314 11 -66 36 c-36
20 -68 39 -72 43 -4 3 -14 72 -23 151 -8 80 -18 162 -21 182 -5 36 -4 37 45
62 l50 26 88 -21 c48 -11 114 -20 146 -20 71 0 194 35 232 65 l27 22 -16 71
c-13 60 -26 85 -84 161 -74 99 -132 206 -132 244 0 14 7 48 16 78 21 70 91
139 206 203 147 82 211 100 375 105 175 5 355 -11 425 -39 41 -16 94 -23 235
-32 163 -9 194 -9 276 7 51 10 99 21 106 25 11 7 23 63 66 298 5 29 0 36 -84
107 l-89 76 -52 -10 c-152 -29 -264 2 -415 112 -60 44 -67 52 -50 59 11 4 47
17 79 30 32 12 99 51 148 87 112 80 154 98 246 107 39 4 74 10 77 15 6 10
-236 125 -305 144 -72 21 -274 51 -475 71 -188 19 -419 57 -525 86 -141 38
-301 156 -315 232 -4 20 -4 50 0 67 9 40 81 116 119 126 18 4 75 -1 145 -14
379 -69 548 -66 711 16 48 24 59 35 90 94 19 37 46 73 61 82 43 25 251 57 379
57 122 1 430 -38 529 -67 30 -9 80 -28 110 -44 139 -69 311 -119 311 -90 0 16
-66 84 -125 130 -29 23 -117 75 -194 116 -78 41 -202 111 -277 155 -247 147
-290 158 -464 114 -183 -45 -281 -44 -325 5 -30 33 -11 56 78 92 45 18 109 47
142 63 52 26 60 34 63 62 6 57 -67 161 -138 198 -63 32 -109 30 -216 -10 -121
-47 -191 -54 -270 -29 -67 21 -68 21 58 29 l97 7 12 36 c49 153 94 223 174
267 109 61 336 153 480 194 308 88 358 110 523 220 144 96 152 103 162 143 25
99 84 278 112 338 35 79 81 127 173 185 147 92 237 124 550 193 l120 27 485 0
c448 0 488 1 513 18 36 23 34 39 -8 76 -63 55 -78 58 -260 64 -200 5 -257 19
-304 72 -28 32 -31 42 -31 99 0 71 7 80 99 135 30 18 44 36 55 66 22 65 13 70
-90 56 -87 -12 -90 -13 -144 -65 -83 -79 -87 -81 -230 -79 -69 1 -149 4 -178
8 -49 6 -54 9 -73 48 -36 71 -87 134 -121 148 -46 19 -212 17 -259 -3 -19 -9
-71 -47 -115 -85 -113 -100 -130 -107 -234 -100 -118 9 -267 35 -316 57 -28
12 -59 40 -96 86 -118 148 -148 234 -155 445 -5 125 -2 157 16 228 35 139 74
181 168 181 26 0 125 -11 218 -25 362 -53 627 -21 739 89 30 29 51 62 70 112
38 102 67 125 189 150 93 20 490 30 569 16 31 -6 105 -33 165 -61 181 -82 225
-95 338 -95 176 -1 276 49 460 231 155 154 200 178 330 177 141 0 164 -15 370
-235 88 -93 151 -141 229 -173 48 -19 75 -21 436 -24 212 -2 458 -1 547 3
l162 7 -98 111 c-78 89 -104 113 -132 119 -19 3 -104 19 -189 33 -182 32 -302
64 -385 105 -114 55 -384 302 -602 552 -103 117 -225 216 -332 270 -58 28 -78
33 -166 36 -55 2 -183 -3 -283 -12 -317 -28 -346 -22 -394 73 -37 72 -45 80
-103 107 -71 34 -95 31 -123 -12 -54 -83 -192 -84 -242 -2 -36 59 -36 90 1
155 91 160 286 438 345 494 52 48 103 83 337 233 764 490 1178 722 1377 772
211 54 378 75 680 85 360 11 412 18 515 69 91 45 357 212 363 228 1 5 -39 45
-90 89 l-94 80 -144 6 c-179 7 -222 19 -330 97 -127 92 -176 98 -341 41 -46
-16 -124 -43 -172 -60 -82 -29 -99 -31 -220 -31 -247 1 -317 37 -317 162 0 66
36 133 107 200 58 54 105 70 338 121 143 30 160 32 365 32 l215 0 68 48 c60
43 96 82 84 93 -2 2 -140 22 -307 44 l-303 40 -221 -31 c-685 -93 -1165 -182
-1352 -249 -309 -111 -723 -237 -1002 -306 -208 -50 -261 -73 -352 -149 l-78
-65 -122 -25 c-68 -14 -125 -25 -127 -25 -2 0 -1 49 3 109 l7 109 -62 31 -61
31 -119 -75 c-291 -184 -447 -304 -617 -472 -119 -118 -279 -253 -379 -319
-60 -40 -147 -64 -228 -64 l-60 0 5 43 c3 23 24 83 48 134 l42 92 -7 84 c-6
79 -9 87 -40 117 l-34 33 -68 -48 c-171 -121 -339 -271 -372 -333 -6 -12 -30
-75 -52 -140 -22 -64 -47 -127 -54 -138 -8 -12 -43 -42 -80 -68 l-65 -47 -39
30 c-75 60 -207 209 -253 287 -26 44 -58 113 -72 155 -45 135 -71 410 -82 879
l-6 275 36 213 36 212 -19 77 c-11 42 -18 80 -16 83 2 4 55 47 117 97 l113 89
58 -42 c31 -23 86 -52 122 -64 91 -30 157 -29 254 6 l80 28 259 -27 c247 -27
262 -27 299 -12 184 80 296 97 536 85 l168 -10 52 41 c28 22 78 54 111 71 68
34 77 34 281 -8 180 -37 329 -78 435 -119 160 -62 426 -125 531 -125 39 0 56
7 100 40 65 49 44 48 425 15 l291 -26 50 31 c64 40 206 90 256 90 21 0 99 -9
174 -21 88 -14 154 -19 188 -14 73 9 156 51 252 128 85 67 127 86 248 112 99
21 135 19 309 -15 l153 -30 109 51 c60 28 159 72 219 97 l110 47 115 -1 c117
-1 265 -22 340 -49 52 -18 143 -10 435 40 l201 34 94 -29 c92 -29 96 -30 133
-14 20 10 37 20 37 24 0 8 -98 50 -180 78 -33 11 -115 17 -305 22 -271 8 -288
10 -565 75 -96 22 -163 27 -765 55 -620 29 -664 30 -737 15 -120 -24 -199 -51
-252 -87 -124 -83 -114 -80 -201 -74 -44 3 -148 17 -232 31 l-152 25 -218 -46
c-484 -100 -587 -109 -783 -65 -134 30 -193 57 -282 128 -91 72 -142 100 -259
143 -88 33 -92 33 -129 19z"/>
</g>
</svg>
